# xmcd CD database file
#
# Track frame offsets:
#	150
#	27595
#	48705
#	68240
#	94687
#	116335
#	138785
#	172590
#
# Disc length: 2547 seconds
#
# Revision: 4
# Processed by: cddbd v1.5.2PL0 Copyright (c) Steve Scherf et al.
# Submitted via: CDex 1.70beta2
#
DISCID=6209f108
DTITLE=Deep Purple - Burn
DYEAR=1974
DGENRE=Hard Rock
TTITLE0=Burn
TTITLE1=Might Just Take Your Life
TTITLE2=Lay Down, Stay Down
TTITLE3=Sail Away
TTITLE4=You Fool No One
TTITLE5=What's Goin' On Here
TTITLE6=Mistreated
TTITLE7="A" 200
EXTD=YEAR: 1974
EXTT0=
EXTT1=
EXTT2=
EXTT3=
EXTT4=
EXTT5=
EXTT6=
EXTT7=
PLAYORDER=
